<svg xmlns="http://www.w3.org/2000/svg" viewBox="0 0 950 240">
  <defs>
    <filter id="glow" x="-20%" y="-20%" width="140%" height="140%">
      <feGaussianBlur stdDeviation="2.5" result="blur"/>
      <feMerge>
        <feMergeNode in="blur"/>
        <feMergeNode in="SourceGraphic"/>
      </feMerge>
    </filter>
    <filter id="toRed">
      <feColorMatrix type="matrix" values="1 0 0 0 0  0 0 0 0 0  0 0 0 0 0  0 0 0 1 0"/>
    </filter>
    <filter id="toCyan">
      <feColorMatrix type="matrix" values="0 0 0 0 0  0 1 0 0 0  0 0 1 0 0  0 0 0 1 0"/>
    </filter>
  </defs>

  <!-- ============ HEADER ============ -->
  <g>
    <animate attributeName="opacity" values="0;1;1;0;0" keyTimes="0;0.02;0.23;0.25;1" dur="12s" repeatCount="indefinite"/>
    <text x="475" y="45" text-anchor="middle" font-family="monospace" font-size="38" font-weight="800" fill="#D2042D" opacity="0.75">
      CONNECT
      <animateTransform attributeName="transform" type="translate" values="0 0;-5 2;4 -2;-2 1;0 0" dur="0.25s" repeatCount="indefinite"/>
    </text>
    <text x="475" y="45" text-anchor="middle" font-family="monospace" font-size="38" font-weight="800" fill="#00F5D4" opacity="0.75">
      CONNECT
      <animateTransform attributeName="transform" type="translate" values="0 0;5 -2;-4 2;2 -1;0 0" dur="0.25s" repeatCount="indefinite"/>
    </text>
    <text x="475" y="45" text-anchor="middle" font-family="monospace" font-size="38" font-weight="800" fill="#EA580C" filter="url(#glow)">CONNECT</text>
  </g>

  <g>
    <animate attributeName="opacity" values="0;0;1;1;0;0" keyTimes="0;0.25;0.27;0.48;0.5;1" dur="12s" repeatCount="indefinite"/>
    <text x="475" y="45" text-anchor="middle" font-family="monospace" font-size="38" font-weight="800" fill="#D2042D" opacity="0.75">
      COLLABORATE
      <animateTransform attributeName="transform" type="translate" values="0 0;-5 2;4 -2;-2 1;0 0" dur="0.25s" repeatCount="indefinite"/>
    </text>
    <text x="475" y="45" text-anchor="middle" font-family="monospace" font-size="38" font-weight="800" fill="#00F5D4" opacity="0.75">
      COLLABORATE
      <animateTransform attributeName="transform" type="translate" values="0 0;5 -2;-4 2;2 -1;0 0" dur="0.25s" repeatCount="indefinite"/>
    </text>
    <text x="475" y="45" text-anchor="middle" font-family="monospace" font-size="38" font-weight="800" fill="#EA580C" filter="url(#glow)">COLLABORATE</text>
  </g>

  <g>
    <animate attributeName="opacity" values="0;0;1;1;0;0" keyTimes="0;0.5;0.52;0.73;0.75;1" dur="12s" repeatCount="indefinite"/>
    <text x="475" y="45" text-anchor="middle" font-family="monospace" font-size="38" font-weight="800" fill="#D2042D" opacity="0.75">
      BUILD
      <animateTransform attributeName="transform" type="translate" values="0 0;-5 2;4 -2;-2 1;0 0" dur="0.25s" repeatCount="indefinite"/>
    </text>
    <text x="475" y="45" text-anchor="middle" font-family="monospace" font-size="38" font-weight="800" fill="#00F5D4" opacity="0.75">
      BUILD
      <animateTransform attributeName="transform" type="translate" values="0 0;5 -2;-4 2;2 -1;0 0" dur="0.25s" repeatCount="indefinite"/>
    </text>
    <text x="475" y="45" text-anchor="middle" font-family="monospace" font-size="38" font-weight="800" fill="#EA580C" filter="url(#glow)">BUILD</text>
  </g>

  <g>
    <animate attributeName="opacity" values="0;0;1;1;0" keyTimes="0;0.75;0.77;0.98;1" dur="12s" repeatCount="indefinite"/>
    <text x="475" y="45" text-anchor="middle" font-family="monospace" font-size="38" font-weight="800" fill="#D2042D" opacity="0.75">
      SAY HELLO
      <animateTransform attributeName="transform" type="translate" values="0 0;-5 2;4 -2;-2 1;0 0" dur="0.25s" repeatCount="indefinite"/>
    </text>
    <text x="475" y="45" text-anchor="middle" font-family="monospace" font-size="38" font-weight="800" fill="#00F5D4" opacity="0.75">
      SAY HELLO
      <animateTransform attributeName="transform" type="translate" values="0 0;5 -2;-4 2;2 -1;0 0" dur="0.25s" repeatCount="indefinite"/>
    </text>
    <text x="475" y="45" text-anchor="middle" font-family="monospace" font-size="38" font-weight="800" fill="#EA580C" filter="url(#glow)">SAY HELLO</text>
  </g>

  <!-- ============ STATIC BADGES (referenced 3×) ============ -->
  <g id="badges-static">

    <!-- ===== ROW 1 (y=100, centered, 730px total) ===== -->

    <!-- Portfolio -->
    <g transform="translate(110 100)">
      <rect width="36" height="36" rx="4" fill="#070b1f"/>
      <rect x="36" width="144" height="36" rx="4" fill="#00F5D4"/>
      <polygon points="18,10 27,26 9,26" fill="#ffffff"/>
      <text x="108" y="24" text-anchor="middle" font-family="Verdana,Arial,sans-serif" font-size="13" font-weight="700" fill="#000000" letter-spacing="1">PORTFOLIO</text>
    </g>

    <!-- GitHub -->
    <g transform="translate(310 100)">
      <rect width="160" height="36" rx="4" fill="#000000"/>
      <g transform="translate(6 6) scale(1)">
        <path d="M12 .297c-6.63 0-12 5.373-12 12 0 5.303 3.438 9.8 8.205 11.385.6.113.82-.258.82-.577 0-.285-.01-1.04-.015-2.04-3.338.724-4.042-1.61-4.042-1.61C4.422 18.07 3.633 17.7 3.633 17.7c-1.087-.744.084-.729.084-.729 1.205.084 1.838 1.236 1.838 1.236 1.07 1.835 2.809 1.305 3.495.998.108-.776.417-1.305.76-1.605-2.665-.3-5.466-1.332-5.466-5.93 0-1.31.465-2.38 1.235-3.22-.135-.303-.54-1.523.105-3.176 0 0 1.005-.322 3.3 1.23.96-.267 1.98-.399 3-.405 1.02.006 2.04.138 3 .405 2.28-1.552 3.285-1.23 3.285-1.23.645 1.653.24 2.873.12 3.176.765.84 1.23 1.91 1.23 3.22 0 4.61-2.805 5.625-5.475 5.92.42.36.81 1.096.81 2.22 0 1.606-.015 2.896-.015 3.286 0 .315.21.69.825.57C20.565 22.092 24 17.592 24 12.297c0-6.627-5.373-12-12-12" fill="#ffffff"/>
      </g>
      <text x="98" y="24" text-anchor="middle" font-family="Verdana,Arial,sans-serif" font-size="13" font-weight="700" fill="#ffffff" letter-spacing="1">GITHUB</text>
    </g>

    <!-- LinkedIn -->
    <g transform="translate(490 100)">
      <rect width="170" height="36" rx="4" fill="#0A66C2"/>
      <text x="18" y="25" text-anchor="middle" font-family="Verdana,Arial,sans-serif" font-size="18" font-weight="800" fill="#ffffff">in</text>
      <text x="103" y="24" text-anchor="middle" font-family="Verdana,Arial,sans-serif" font-size="13" font-weight="700" fill="#ffffff" letter-spacing="1">LINKEDIN</text>
    </g>

    <!-- Bluesky -->
    <g transform="translate(680 100)">
      <rect width="160" height="36" rx="4" fill="#0085FF"/>
      <g transform="translate(6 6)">
        <path d="M12 10.8c-1.087-2.114-4.046-6.053-6.798-7.995C2.566.944 1.561 1.266.902 1.565.139 1.908 0 3.08 0 3.768c0 .69.378 5.65.624 6.479.815 2.736 3.713 3.66 6.383 3.364.136-.02.275-.039.415-.056-.138.022-.276.04-.415.056-3.912.58-7.387 2.005-2.83 7.078 5.013 5.19 6.87-1.113 7.823-4.308.953 3.195 2.05 9.271 7.733 4.308 4.267-4.308 1.172-6.498-2.74-7.078a8.741 8.741 0 0 1-.415-.056c.14.017.279.036.415.056 2.67.297 5.568-.628 6.383-3.364.246-.828.624-5.79.624-6.478 0-.69-.139-1.861-.902-2.206-.659-.298-1.664-.62-4.3 1.24C16.046 4.748 13.087 8.687 12 10.8Z" fill="#ffffff"/>
      </g>
      <text x="98" y="24" text-anchor="middle" font-family="Verdana,Arial,sans-serif" font-size="13" font-weight="700" fill="#ffffff" letter-spacing="1">BLUESKY</text>
    </g>

    <!-- ===== ROW 2 (y=160, centered, 730px total) ===== -->

    <!-- Google Dev -->
    <g transform="translate(115 160)">
      <rect width="110" height="36" rx="4" fill="#FBBF24"/>
      <rect x="110" width="100" height="36" rx="4" fill="#22C55E"/>
      <g transform="translate(6 6)">
        <path d="M12.24 10.285V14.4h6.806c-.275 1.765-2.056 5.174-6.806 5.174-4.095 0-7.439-3.389-7.439-7.574s3.345-7.574 7.439-7.574c2.33 0 3.891.989 4.785 1.849l3.254-3.138C18.189 1.186 15.479 0 12.24 0c-6.635 0-12 5.365-12 12s5.365 12 12 12c6.926 0 11.52-4.869 11.52-11.726 0-.788-.085-1.39-.189-1.989H12.24z" fill="#000000"/>
      </g>
      <text x="60" y="24" text-anchor="middle" font-family="Verdana,Arial,sans-serif" font-size="13" font-weight="700" fill="#000000" letter-spacing="1">GOOGLE</text>
      <text x="160" y="24" text-anchor="middle" font-family="Verdana,Arial,sans-serif" font-size="13" font-weight="700" fill="#ffffff" letter-spacing="1">DEV</text>
    </g>

    <!-- Facebook Developers -->
    <g transform="translate(345 160)">
      <rect width="290" height="36" rx="4" fill="#1877F2"/>
      <text x="18" y="27" text-anchor="middle" font-family="Verdana,Arial,sans-serif" font-size="22" font-weight="800" fill="#ffffff">f</text>
      <text x="163" y="24" text-anchor="middle" font-family="Verdana,Arial,sans-serif" font-size="13" font-weight="700" fill="#ffffff" letter-spacing="1">FACEBOOK DEVELOPERS</text>
    </g>

    <!-- Instagram -->
    <g transform="translate(655 160)">
      <rect width="180" height="36" rx="4" fill="#E4405F"/>
      <rect x="10" y="10" width="16" height="16" rx="4" fill="none" stroke="#ffffff" stroke-width="1.8"/>
      <circle cx="18" cy="18" r="3.5" fill="none" stroke="#ffffff" stroke-width="1.5"/>
      <circle cx="23" cy="13" r="1.2" fill="#ffffff"/>
      <text x="110" y="24" text-anchor="middle" font-family="Verdana,Arial,sans-serif" font-size="13" font-weight="700" fill="#ffffff" letter-spacing="1">INSTAGRAM</text>
    </g>

  </g>

  <!-- ============ ANIMATED LAYERS (3s glitch) ============ -->

  <!-- Base layer with jitter -->
  <g>
    <animateTransform attributeName="transform" type="translate"
      values="0 0; 0 0; -3 1; 3 -1; -2 1; 2 -1; 0 0; 0 0"
      keyTimes="0; 0.88; 0.90; 0.92; 0.94; 0.96; 0.98; 1"
      dur="3s" repeatCount="indefinite"/>
    <use href="#badges-static"/>
  </g>

  <!-- Red ghost -->
  <g opacity="0" filter="url(#toRed)">
    <animate attributeName="opacity" values="0; 0; 0.7; 0.7; 0; 0"
      keyTimes="0; 0.88; 0.90; 0.96; 0.98; 1" dur="3s" repeatCount="indefinite"/>
    <g transform="translate(-4 0)">
      <use href="#badges-static"/>
    </g>
  </g>

  <!-- Cyan ghost -->
  <g opacity="0" filter="url(#toCyan)">
    <animate attributeName="opacity" values="0; 0; 0.7; 0.7; 0; 0"
      keyTimes="0; 0.88; 0.90; 0.96; 0.98; 1" dur="3s" repeatCount="indefinite"/>
    <g transform="translate(4 0)">
      <use href="#badges-static"/>
    </g>
  </g>

</svg>
